<?xml version="1.0" encoding="UTF-8" standalone="no"?>
<svg
   xmlns:dc="http://purl.org/dc/elements/1.1/"
   xmlns:cc="http://creativecommons.org/ns#"
   xmlns:rdf="http://www.w3.org/1999/02/22-rdf-syntax-ns#"
   xmlns:svg="http://www.w3.org/2000/svg"
   xmlns="http://www.w3.org/2000/svg"
   xmlns:xlink="http://www.w3.org/1999/xlink"
   xmlns:sodipodi="http://sodipodi.sourceforge.net/DTD/sodipodi-0.dtd"
   xmlns:inkscape="http://www.inkscape.org/namespaces/inkscape"
   width="90mm"
   height="16mm"
   viewBox="0 0 90 16"
   version="1.1"
   id="svg66"
   inkscape:version="1.0.1 (3bc2e813f5, 2020-09-07)"
   sodipodi:docname="Base Bono.svg">
  <defs
     id="defs60">
    <linearGradient
       inkscape:collect="always"
       xlink:href="#linearGradient1079"
       id="linearGradient1081"
       x1="46.772171"
       y1="8.2185383"
       x2="46.638531"
       y2="18.241146"
       gradientUnits="userSpaceOnUse"
       gradientTransform="matrix(1.3261921,0,0,1,-13.536066,-5.7266576)" />
    <linearGradient
       inkscape:collect="always"
       id="linearGradient1079">
      <stop
         style="stop-color:#dc0882;stop-opacity:1"
         offset="0"
         id="stop1075" />
      <stop
         style="stop-color:#780096;stop-opacity:1"
         offset="1"
         id="stop1077" />
    </linearGradient>
    <linearGradient
       inkscape:collect="always"
       xlink:href="#linearGradient1079"
       id="linearGradient1091"
       x1="22.802332"
       y1="27.227945"
       x2="22.98518"
       y2="42.028137"
       gradientUnits="userSpaceOnUse"
       gradientTransform="matrix(1.0061287,0,0,1.0241757,-14.789918,-27.373098)" />
  </defs>
  <sodipodi:namedview
     id="base"
     pagecolor="#ffffff"
     bordercolor="#666666"
     borderopacity="1.0"
     inkscape:pageopacity="0.0"
     inkscape:pageshadow="2"
     inkscape:zoom="2.8"
     inkscape:cx="152.51786"
     inkscape:cy="142.48737"
     inkscape:document-units="mm"
     inkscape:current-layer="layer1"
     inkscape:document-rotation="0"
     showgrid="false"
     inkscape:window-width="1920"
     inkscape:window-height="1017"
     inkscape:window-x="-8"
     inkscape:window-y="-8"
     inkscape:window-maximized="1" />
  <metadata
     id="metadata63">
    <rdf:RDF>
      <cc:Work
         rdf:about="">
        <dc:format>image/svg+xml</dc:format>
        <dc:type
           rdf:resource="http://purl.org/dc/dcmitype/StillImage" />
        <dc:title></dc:title>
      </cc:Work>
    </rdf:RDF>
  </metadata>
  <g
     inkscape:label="Capa 1"
     inkscape:groupmode="layer"
     id="layer1">
    <rect
       style="fill:url(#linearGradient1081);fill-opacity:1;fill-rule:evenodd;stroke-width:0.289245"
       id="rect248"
       width="81.70089"
       height="11.091685"
       x="8.2626572"
       y="2.024158"
       ry="2.3191707" />
    <ellipse
       style="opacity:1;fill:url(#linearGradient1091);fill-opacity:1;stroke-width:0.268581"
       id="path1083"
       cx="8"
       cy="7.8697648"
       rx="8"
       ry="7.8697648" />
    <path
       id="path132"
       style="fill:#ffffff;fill-opacity:1;fill-rule:evenodd;stroke:none;stroke-width:0.0372769"
       d="m 7.7564517,9.7624943 c 0.11512,-0.02374 0.21016,-0.07517 0.27931,-0.153227 0.0695,-0.07266 0.10894,-0.1647358 0.10894,-0.2730018 0,-0.0928 -0.0328,-0.174808 -0.0935,-0.24135 -0.0572,-0.06906 -0.1553,-0.121215 -0.29477,-0.155745 z m -0.32723,-2.2415688 c -0.0896,0.03021 -0.1595498,0.07949 -0.2109298,0.144954 -0.0514,0.06906 -0.0753,0.144234 -0.0753,0.225164 0,0.07482 0.0239,0.139919 0.0703,0.205021 0.0475,0.0651 0.11667,0.112223 0.2159598,0.151789 z m 0,2.2066788 V 8.8481705 c -0.2943798,-0.07661 -0.5099498,-0.194591 -0.6451698,-0.35717 -0.13599,-0.157183 -0.20591,-0.351773 -0.20591,-0.577297 0,-0.230918 0.0788,-0.422992 0.23373,-0.578736 0.15415,-0.157543 0.36044,-0.249982 0.6173498,-0.269765 v -0.209697 h 0.32723 v 0.209697 c 0.24184,0.0259 0.43423,0.103949 0.57369,0.230919 0.14642,0.121215 0.23258,0.291706 0.27623,0.499245 l -0.57486,0.06942 c -0.0375,-0.164737 -0.12594,-0.274081 -0.27506,-0.334869 v 0.823323 c 0.36237,0.08596 0.61156,0.208978 0.74291,0.351774 0.13289,0.143156 0.2005,0.329114 0.2005,0.557516 0,0.2510608 -0.0842,0.4650738 -0.25304,0.6380828 -0.16303,0.1751687 -0.39251,0.2834347 -0.69037,0.3265977 v 0.392418 h -0.32723 V 10.232965 C 7.1723119,10.200955 6.9613819,10.114628 6.7983519,9.9628403 c -0.16496,-0.148551 -0.26696,-0.362565 -0.31332,-0.6352078 l 0.58916,-0.0651 c 0.0216,0.112582 0.0688,0.207899 0.13521,0.2920658 0.0649,0.07625 0.13908,0.13812 0.2198198,0.173009 z m 1.95676,-5.2298469 c 0,0.08668 -0.0738,0.156104 -0.16844,0.156104 H 6.2466719 c -0.0892,0 -0.16303,-0.06942 -0.16303,-0.156104 0,-0.08381 0.0738,-0.152867 0.16303,-0.152867 h 2.9708698 c 0.0947,0 0.16844,0.06906 0.16844,0.152867 z m 0,0.462197 c 0,0.08633 -0.0738,0.1561041 -0.16844,0.1561041 H 6.2466719 c -0.0892,0 -0.16303,-0.06978 -0.16303,-0.1561041 0,-0.08381 0.0738,-0.153226 0.16303,-0.153226 h 2.9708698 c 0.0947,0 0.16844,0.06942 0.16844,0.153226 z M 6.0048319,3.1147604 c -0.18351,-0.291707 -0.0719,-0.670097 0.24184,-0.839149 0.31756,-0.169054 0.71935,-0.07086 0.90208,0.226961 l 0.0139,0.01726 c 0.11165,-0.192073 0.3210398,-0.326596 0.5690598,-0.326596 0.25343,0 0.46398,0.134523 0.57409,0.326596 l 0.0108,-0.01726 c 0.18273,-0.29782 0.58722,-0.396015 0.90092,-0.226961 0.31794,0.169052 0.42496,0.547442 0.24338,0.839149 l -0.40642,1.07978 H 6.4092919 Z m 5.1014801,7.5861576 -0.16419,0.532697 c 0,0 -0.0699,-1.6592367 -1.1868103,-2.8721015 -1.06549,-1.156753 -1.09756,-2.4804 -1.09756,-2.4804 0.6641,1.121863 1.00485,1.436589 1.4062403,1.740884 0.15415,0.117258 0.28086,0.214014 0.47673,0.465435 0.89088,1.147761 0.69617,2.2088375 0.56559,2.6134855 z m 0.63628,0.174088 c 0.14372,-0.466154 0.40411,-1.7696595 -0.66603,-3.1443835 -0.69887,-0.904972 -0.80318,-0.30897 -2.0220503,-2.462057 H 6.4093119 c -1.215,2.153087 -1.31738,1.557085 -2.02243,2.462057 -1.07013,1.374724 -0.8082,2.6782295 -0.66256,3.1443835 -0.36083,0.134883 -0.61426,0.466514 -0.61426,0.853538 0,0.104309 0.0251,0.208258 0.0622,0.303216 h 9.1254901 c 0.0367,-0.09495 0.0607,-0.198907 0.0607,-0.303216 0,-0.387024 -0.25807,-0.718655 -0.61581,-0.853538 v 0" />
    <text
       xml:space="preserve"
       style="font-style:normal;font-weight:normal;font-size:5.64444px;line-height:1.25;font-family:sans-serif;fill:#000000;fill-opacity:1;stroke:none;stroke-width:0.264583"
       x="33.737114"
       y="8.9015999"
       id="text1154"><tspan
         sodipodi:role="line"
         id="tspan1152"
         x="33.737114"
         y="8.9015999"
         style="font-style:normal;font-variant:normal;font-weight:normal;font-stretch:normal;font-size:5.64444px;font-family:'Segoe UI';-inkscape-font-specification:'Segoe UI';fill:#ffffff;fill-opacity:1;stroke-width:0.264583">Base Bono</tspan></text>
  </g>
</svg>
