<?xml version="1.0" encoding="UTF-8" standalone="no"?>
<svg
   xmlns:dc="http://purl.org/dc/elements/1.1/"
   xmlns:cc="http://creativecommons.org/ns#"
   xmlns:rdf="http://www.w3.org/1999/02/22-rdf-syntax-ns#"
   xmlns:svg="http://www.w3.org/2000/svg"
   xmlns="http://www.w3.org/2000/svg"
   xmlns:xlink="http://www.w3.org/1999/xlink"
   xmlns:sodipodi="http://sodipodi.sourceforge.net/DTD/sodipodi-0.dtd"
   xmlns:inkscape="http://www.inkscape.org/namespaces/inkscape"
   width="90mm"
   height="16mm"
   viewBox="0 0 90 16"
   version="1.1"
   id="svg66"
   inkscape:version="1.0.1 (3bc2e813f5, 2020-09-07)"
   sodipodi:docname="Llave_Acceso.svg">
  <defs
     id="defs60">
    <linearGradient
       inkscape:collect="always"
       xlink:href="#linearGradient1079"
       id="linearGradient1081-5"
       x1="46.772171"
       y1="8.2185383"
       x2="46.638531"
       y2="18.241146"
       gradientUnits="userSpaceOnUse"
       gradientTransform="matrix(1.3277259,0,0,1,-13.655769,-5.6321664)" />
    <linearGradient
       inkscape:collect="always"
       id="linearGradient1079">
      <stop
         style="stop-color:#dc0882;stop-opacity:1"
         offset="0"
         id="stop1075" />
      <stop
         style="stop-color:#780096;stop-opacity:1"
         offset="1"
         id="stop1077" />
    </linearGradient>
    <linearGradient
       inkscape:collect="always"
       xlink:href="#linearGradient1079"
       id="linearGradient1091-8"
       x1="22.802332"
       y1="27.227945"
       x2="22.98518"
       y2="42.028137"
       gradientUnits="userSpaceOnUse"
       gradientTransform="matrix(1.0061287,0,0,1.0411245,-14.789916,-27.826091)" />
  </defs>
  <sodipodi:namedview
     id="base"
     pagecolor="#ffffff"
     bordercolor="#666666"
     borderopacity="1.0"
     inkscape:pageopacity="0.0"
     inkscape:pageshadow="2"
     inkscape:zoom="2.8"
     inkscape:cx="162.47355"
     inkscape:cy="99.630227"
     inkscape:document-units="mm"
     inkscape:current-layer="layer1"
     inkscape:document-rotation="0"
     showgrid="false"
     inkscape:window-width="1920"
     inkscape:window-height="1017"
     inkscape:window-x="-8"
     inkscape:window-y="-8"
     inkscape:window-maximized="1" />
  <metadata
     id="metadata63">
    <rdf:RDF>
      <cc:Work
         rdf:about="">
        <dc:format>image/svg+xml</dc:format>
        <dc:type
           rdf:resource="http://purl.org/dc/dcmitype/StillImage" />
        <dc:title></dc:title>
      </cc:Work>
    </rdf:RDF>
  </metadata>
  <g
     inkscape:label="Capa 1"
     inkscape:groupmode="layer"
     id="layer1">
    <rect
       style="fill:url(#linearGradient1081-5);fill-opacity:1;fill-rule:evenodd;stroke-width:0.289412"
       id="rect248-3"
       width="81.795387"
       height="11.091685"
       x="8.1681623"
       y="2.1186528"
       ry="2.3191707"
       inkscape:export-xdpi="96.029831"
       inkscape:export-ydpi="96.029831" />
    <circle
       style="opacity:1;fill:url(#linearGradient1091-8);fill-opacity:1;stroke-width:0.270794"
       id="path1083-5"
       cx="8"
       cy="8"
       inkscape:export-xdpi="96.029831"
       inkscape:export-ydpi="96.029831"
       r="8" />
    <path
       id="path148"
       style="fill:#ffffff;fill-opacity:1;fill-rule:evenodd;stroke:none;stroke-width:0.0344498"
       d="m 7.6878458,8.7059245 c 0.242553,0 0.43969,0.206728 0.43969,0.46108 0,0.21202 -0.140283,0.397581 -0.327665,0.445911 0.0091,0.07444 0.01614,0.1594564 0.01614,0.2554124 0,0.115711 -0.01245,0.2226021 -0.0259,0.3012721 v 0 c -0.01513,0.101248 -0.05113,0.159103 -0.102269,0.159103 -0.04474,0 -0.08141,-0.05786 -0.100251,-0.159103 v 0 c -0.01513,-0.07867 -0.02119,-0.1855611 -0.02119,-0.3012721 0,-0.09596 0.006,-0.1809754 0.01581,-0.2554124 -0.191755,-0.04833 -0.333721,-0.233891 -0.333721,-0.445911 0,-0.254352 0.195793,-0.46108 0.439356,-0.46108 z m 1.876843,-2.306109 v 0 h -3.808184 l -0.03499,-1.273175 c 0,-0.8382 0.642546,-1.511652 1.440516,-1.511652 h 0.92547 c 0.799315,0 1.442198,0.673452 1.442198,1.511652 z m 1.0267292,0.0254 -0.03567,-1.617133 c 0,-1.145822 -0.8840912,-2.073275 -1.9723832,-2.073275 h -1.91654 c -1.087283,0 -1.972047,0.927453 -1.972047,2.073275 l 0.03566,1.612195 c -0.439018,0.0635 -0.770047,0.439913 -0.770047,0.885825 v 4.1726565 c 0,0.499886 0.410423,0.906991 0.921097,0.906991 H 10.36904 c 0.313872,0 2.330326,-1.186038 -0.278885,-1.186038 v -0.504825 c 1.76078,0 1.76078,-0.6953251 0,-0.6953251 V 9.5003795 c 1.770536,0 1.770536,-0.74683 0,-0.74683 v -0.510117 c 2.270108,0 0.987369,-1.69545 0.501254,-1.818217 v 0"
       inkscape:export-xdpi="96.029831"
       inkscape:export-ydpi="96.029831" />
    <text
       xml:space="preserve"
       style="font-style:normal;font-weight:normal;font-size:4.9389px;line-height:1.25;font-family:sans-serif;fill:#000000;fill-opacity:1;stroke:none;stroke-width:0.264583"
       x="28.817787"
       y="9.6516953"
       id="text1154-8"
       inkscape:export-xdpi="96.029831"
       inkscape:export-ydpi="96.029831"><tspan
         sodipodi:role="line"
         id="tspan1152-1"
         x="28.817787"
         y="9.6516953"
         style="font-style:normal;font-variant:normal;font-weight:normal;font-stretch:normal;font-size:5.64444px;font-family:'Segoe UI';-inkscape-font-specification:'Segoe UI';fill:#ffffff;fill-opacity:1;stroke-width:0.264583">Llave de Acceso</tspan></text>
  </g>
</svg>
