<?xml version="1.0" encoding="UTF-8" standalone="no"?>
<svg
   xmlns:dc="http://purl.org/dc/elements/1.1/"
   xmlns:cc="http://creativecommons.org/ns#"
   xmlns:rdf="http://www.w3.org/1999/02/22-rdf-syntax-ns#"
   xmlns:svg="http://www.w3.org/2000/svg"
   xmlns="http://www.w3.org/2000/svg"
   xmlns:sodipodi="http://sodipodi.sourceforge.net/DTD/sodipodi-0.dtd"
   xmlns:inkscape="http://www.inkscape.org/namespaces/inkscape"
   id="Capa_1"
   data-name="Capa 1"
   viewBox="0 0 210.50001 61.599998"
   version="1.1"
   sodipodi:docname="logo.svg"
   width="210.5"
   height="61.599998"
   inkscape:version="1.0.1 (3bc2e813f5, 2020-09-07)">
  <metadata
     id="metadata114">
    <rdf:RDF>
      <cc:Work
         rdf:about="">
        <dc:format>image/svg+xml</dc:format>
        <dc:type
           rdf:resource="http://purl.org/dc/dcmitype/StillImage" />
        <dc:title></dc:title>
      </cc:Work>
    </rdf:RDF>
  </metadata>
  <sodipodi:namedview
     pagecolor="#ffffff"
     bordercolor="#666666"
     borderopacity="1"
     objecttolerance="10"
     gridtolerance="10"
     guidetolerance="10"
     inkscape:pageopacity="0"
     inkscape:pageshadow="2"
     inkscape:window-width="1920"
     inkscape:window-height="1017"
     id="namedview112"
     showgrid="false"
     inkscape:zoom="5.8299311"
     inkscape:cx="102.13385"
     inkscape:cy="41.861145"
     inkscape:window-x="-8"
     inkscape:window-y="-8"
     inkscape:window-maximized="1"
     inkscape:current-layer="Capa_1" />
  <defs
     id="defs65">
    <style
       id="style63">.cls-1{fill:#fff;}.cls-2{fill:none;stroke:#fff;stroke-miterlimit:10;stroke-width:2px;}</style>
  </defs>
  <path
     class="cls-1"
     d="M 48.41634,57.038236 V 21.615105 a 2.3293428,2.328234 0 0 1 0.509856,-1.698712 4.1188379,4.1168773 0 0 1 1.809489,-0.849355 77.608104,77.571162 0 0 1 9.837225,-0.539591 q 7.527876,0 10.996897,2.22831 3.469022,2.228309 3.479019,7.933982 v 0.739439 q 0,5.935498 -4.99859,8.193785 7.637845,2.198332 7.637845,10.392117 v 0.739439 c 0,3.996969 -1.379611,6.924748 -4.128835,8.783338 -2.749224,1.858591 -6.998026,2.797878 -12.666426,2.797878 A 74.329029,74.293648 0 0 1 50.665705,59.65625 3.8289197,3.8270971 0 0 1 48.906202,58.78691 2.449309,2.4481431 0 0 1 48.41634,57.038236 Z m 6.828073,-21.693545 h 4.628694 q 4.358771,0 6.308221,-1.358969 a 4.9985897,4.9962103 0 0 0 1.999436,-4.406658 v -0.559575 a 4.9985897,4.9962103 0 0 0 -1.749507,-4.186825 c -1.16967,-0.899318 -2.999154,-1.358969 -5.428468,-1.358969 -1.319628,0 -3.219092,0.119909 -5.70839,0.339742 z m 6.668119,19.884917 c 2.999154,0 5.198533,-0.559575 6.55815,-1.688719 1.359616,-1.129144 1.999436,-2.917787 1.999436,-5.36593 v -0.669492 q 0,-3.677211 -2.229371,-5.425885 c -1.48958,-1.169113 -3.848914,-1.748673 -7.097998,-1.748673 h -5.898336 v 14.568949 a 62.252436,62.222804 0 0 0 6.688113,0.32975 z"
     id="path67"
     style="fill:#2c4f8c;fill-opacity:1;stroke-width:1" />
  <path
     class="cls-1"
     d="m 81.716944,45.227195 v -0.999242 q 0,-7.404384 3.648971,-11.211496 3.64897,-3.807112 10.656993,-3.817105 6.998022,0 10.686982,3.817105 3.68896,3.817105 3.66897,11.211496 v 0.999242 q 0,7.404384 -3.66897,11.251466 -3.66896,3.847082 -10.686982,3.837089 -6.998025,0 -10.656993,-3.837089 -3.658968,-3.83709 -3.648971,-11.251466 z m 21.543926,0 v -0.849356 q 0,-9.892496 -7.237962,-9.892496 -7.237958,0 -7.237958,9.832542 v 0.90931 q 0,9.932466 7.237958,9.942459 a 6.2082484,6.2052933 0 0 0 5.398482,-2.59803 c 1.21965,-1.778651 1.80948,-4.236786 1.80948,-7.394391 z"
     id="path69"
     style="fill:#2c4f8c;fill-opacity:1;stroke-width:1" />
  <path
     class="cls-1"
     d="m 141.76,40.201007 v 17.236926 a 1.9994359,1.9984841 0 0 1 -2.26936,2.318242 h -2.14939 A 1.9994359,1.9984841 0 0 1 135.0319,57.437933 V 41.16028 q 0,-6.385157 -5.88834,-6.385157 a 15.825535,15.818002 0 0 0 -6.66812,1.358969 v 21.303841 a 1.9994359,1.9984841 0 0 1 -2.24936,2.318242 h -2.14939 a 1.9994359,1.9984841 0 0 1 -2.31935,-2.318242 v -22.66281 a 3.4190354,3.4174079 0 0 1 2.24937,-3.257529 27.412266,27.399218 0 0 1 11.76668,-2.258287 q 6.09828,0 8.99746,2.877817 c 1.99943,1.908552 2.98915,4.596513 2.98915,8.063883 z"
     id="path71"
     style="fill:#2c4f8c;fill-opacity:1;stroke-width:1" />
  <path
     class="cls-1"
     d="M 148.08822,49.354065 V 32.117139 a 1.9994359,1.9984841 0 0 1 2.31934,-2.308249 h 2.08941 a 2.4892977,2.4881128 0 0 1 1.7795,0.529598 2.4593061,2.4581355 0 0 1 0.53985,1.778651 V 48.67458 q 0,6.115362 6.04829,6.105369 a 19.124604,19.115501 0 0 0 6.21825,-0.899318 V 32.117139 a 1.9994359,1.9984841 0 0 1 2.25936,-2.308249 h 2.1494 a 1.9994359,1.9984841 0 0 1 2.31934,2.308249 v 23.911863 a 2.5692751,2.5680521 0 0 1 -2.25936,2.817862 30.731329,30.716701 0 0 1 -4.80864,0.999242 43.777649,43.75681 0 0 1 -6.21825,0.509614 Q 148.09822,60.31575 148.08822,49.354065 Z"
     id="path73"
     style="fill:#2c4f8c;fill-opacity:1;stroke-width:1" />
  <path
     class="cls-1"
     d="m 201.06327,32.297003 -0.11996,0.449658 a 3.6689648,3.6672184 0 0 1 -0.47987,1.998485 c -0.23993,0.259803 -0.72979,0.339742 -1.43959,0.219833 a 36.779623,36.762116 0 0 0 -5.81836,-0.509614 16.995205,16.987115 0 0 0 -5.20853,0.629523 2.3693315,2.3682037 0 0 0 -1.85948,2.368204 2.4593061,2.4581355 0 0 0 1.21966,2.058438 9.7172584,9.7126329 0 0 0 2.99915,1.319 l 3.84892,1.059196 a 20.864113,20.854182 0 0 1 3.86891,1.478879 7.2179635,7.2145277 0 0 1 2.92917,2.897802 9.3473627,9.3429134 0 0 1 1.17967,4.846324 8.6275658,8.6234591 0 0 1 -1.12969,4.486597 7.6478422,7.6442018 0 0 1 -2.99915,2.887809 15.66558,15.658123 0 0 1 -3.99887,1.438909 21.293992,21.283856 0 0 1 -4.46874,0.449659 58.203578,58.175873 0 0 1 -8.42762,-0.679485 2.8691905,2.8678247 0 0 1 -1.74951,-0.61953 2.9991538,2.9977262 0 0 1 -0.39989,-1.868583 v -0.339742 c 0,-1.089174 0.19995,-1.788643 0.59984,-2.088416 a 2.5792723,2.5780445 0 0 1 1.88946,-0.279788 37.219499,37.201782 0 0 0 7.29794,0.61953 q 6.55815,0 6.55815,-3.887051 a 3.678962,3.6772108 0 0 0 -1.64953,-3.187582 13.236266,13.229965 0 0 0 -3.99887,-1.828613 l -4.71867,-1.368962 a 8.3976307,8.3936334 0 0 1 -3.99887,-2.548067 7.1379861,7.1345884 0 0 1 -1.63954,-4.866309 8.1177097,8.1138456 0 0 1 0.99972,-4.236787 6.2782287,6.2752402 0 0 1 2.85919,-2.538074 14.775831,14.768798 0 0 1 3.99887,-1.139136 32.590805,32.575291 0 0 1 4.83864,-0.309765 44.097558,44.076568 0 0 1 7.34792,0.61953 2.3893259,2.3881885 0 0 1 1.49958,0.61953 2.7492243,2.7479157 0 0 1 0.16995,1.848598 z"
     id="path75"
     style="fill:#2c4f8c;fill-opacity:1;stroke-width:1" />
  <path
     class="cls-1"
     d="M 52.975054,14.910191 H 50.025886 V 3.4488843 H 46.246952 V 0.9907488 h 10.517033 v 2.4581355 h -3.788931 z"
     id="path77"
     style="fill:#2c4f8c;fill-opacity:1;stroke-width:1" />
  <path
     class="cls-1"
     d="m 61.692594,4.0784068 a 4.7886489,4.7863695 0 0 1 3.489016,1.2490526 4.7886489,4.7863695 0 0 1 1.289636,3.5772866 v 1.408931 h -6.858065 a 2.7392272,2.7379233 0 0 0 0.729794,1.928537 2.5592779,2.5580597 0 0 0 1.919458,0.69947 8.3476448,8.3436713 0 0 0 1.859476,-0.199849 8.8774953,8.8732696 0 0 0 1.749506,-0.639515 v 2.248295 a 7.2479551,7.244505 0 0 1 -1.659532,0.569568 9.6072894,9.6027163 0 0 1 -2.08941,0.189856 6.3682033,6.365172 0 0 1 -2.829202,-0.599545 4.3887618,4.3866727 0 0 1 -1.929456,-1.788644 5.9983076,5.9954524 0 0 1 -0.699802,-3.05768 6.8780594,6.8747854 0 0 1 0.629822,-3.0976504 4.2787928,4.2767561 0 0 1 1.769501,-1.8685827 5.2985051,5.295983 0 0 1 2.629258,-0.6195301 z m 0,2.0584387 a 1.9094613,1.9085524 0 0 0 -1.399605,0.5495831 2.6392554,2.6379991 0 0 0 -0.649817,1.6987115 h 4.098844 A 2.619261,2.6180142 0 0 0 63.222163,6.7863528 1.7794979,1.7786509 0 0 0 61.712588,6.1368455 Z"
     id="path79"
     style="fill:#2c4f8c;fill-opacity:1;stroke-width:1" />
  <path
     class="cls-1"
     d="M 71.739759,14.910191 H 68.83058 V 0.10142336 h 2.909179 z"
     id="path81"
     style="fill:#2c4f8c;fill-opacity:1;stroke-width:1" />
  <path
     class="cls-1"
     d="m 79.167664,4.0784068 a 4.8086433,4.8063544 0 0 1 3.489015,1.2490526 4.7886489,4.7863695 0 0 1 1.289636,3.5772866 v 1.408931 h -6.868062 a 2.7492243,2.7479157 0 0 0 0.739791,1.928537 2.5592779,2.5580597 0 0 0 1.919459,0.69947 8.3476448,8.3436713 0 0 0 1.859475,-0.199849 8.8774953,8.8732696 0 0 0 1.749507,-0.639515 v 2.248295 a 7.2479551,7.244505 0 0 1 -1.659532,0.569568 9.6072894,9.6027163 0 0 1 -2.089411,0.189856 6.3682033,6.365172 0 0 1 -2.829201,-0.599545 4.3887618,4.3866727 0 0 1 -1.929456,-1.788644 5.9983076,5.9954524 0 0 1 -0.699803,-3.05768 6.8780594,6.8747854 0 0 1 0.629823,-3.0976504 4.2787928,4.2767561 0 0 1 1.7695,-1.8685827 5.2985051,5.295983 0 0 1 2.629259,-0.6195301 z m 0,2.0584387 A 1.9094613,1.9085524 0 0 0 77.768059,6.6864286 2.6392554,2.6379991 0 0 0 77.118242,8.3851401 H 81.23708 A 2.619261,2.6180142 0 0 0 80.717226,6.7863528 1.7794979,1.7786509 0 0 0 79.237644,6.1368455 Z"
     id="path83"
     style="fill:#2c4f8c;fill-opacity:1;stroke-width:1" />
  <path
     class="cls-1"
     d="m 92.233977,4.0784068 a 3.5390015,3.5373169 0 0 1 2.909179,1.3889465 6.4981666,6.4950735 0 0 1 1.089693,4.0669152 6.3582061,6.3551796 0 0 1 -1.149676,4.1268695 3.6389733,3.6372411 0 0 1 -2.999154,1.408931 3.4890156,3.4873548 0 0 1 -1.829483,-0.419681 4.1988153,4.1968167 0 0 1 -1.019713,-0.909311 h -0.159955 a 7.9977435,7.9939366 0 0 1 0.159955,1.558818 v 4.296741 H 86.30565 V 4.2682628 h 2.359334 l 0.409884,1.3889465 h 0.159955 a 3.9988718,3.9969683 0 0 1 1.129682,-1.1191511 3.3890438,3.3874306 0 0 1 1.869472,-0.4596514 z m -0.929738,2.3182416 a 1.7695008,1.7686585 0 0 0 -1.599548,0.7094619 3.9288915,3.9270213 0 0 0 -0.469868,2.138378 v 0.2897802 a 4.9086151,4.9062786 0 0 0 0.459871,2.3682035 1.729512,1.7286888 0 0 0 1.659531,0.829371 1.5995487,1.5987873 0 0 0 1.479583,-0.829371 4.8286377,4.8263392 0 0 0 0.479865,-2.3881883 C 93.293683,7.4458526 92.623867,6.3966484 91.304239,6.3966484 Z"
     id="path85"
     style="fill:#2c4f8c;fill-opacity:1;stroke-width:1" />
  <path
     class="cls-1"
     d="m 103.04093,4.0784068 a 4.7886489,4.7863695 0 0 1 3.48901,1.2490526 4.7886489,4.7863695 0 0 1 1.28964,3.5772866 v 1.408931 h -6.86806 a 2.7492243,2.7479157 0 0 0 0.73979,1.928537 2.5592779,2.5580597 0 0 0 1.91946,0.69947 8.3476448,8.3436713 0 0 0 1.85947,-0.199849 8.8774953,8.8732696 0 0 0 1.74951,-0.639515 v 2.248295 a 7.2479551,7.244505 0 0 1 -1.65953,0.569568 9.6072894,9.6027163 0 0 1 -2.08941,0.189856 6.3682033,6.365172 0 0 1 -2.8292,-0.599545 4.3887618,4.3866727 0 0 1 -1.929461,-1.788644 5.9983076,5.9954524 0 0 1 -0.699802,-3.05768 6.8780594,6.8747854 0 0 1 0.629822,-3.0976504 4.2787928,4.2767561 0 0 1 1.769501,-1.8685827 5.2985051,5.295983 0 0 1 2.62926,-0.6195301 z m 0,2.0584387 a 1.9094613,1.9085524 0 0 0 -1.39961,0.5495831 2.6392554,2.6379991 0 0 0 -0.64981,1.6987115 h 4.07885 A 2.619261,2.6180142 0 0 0 104.5505,6.7863528 1.7794979,1.7786509 0 0 0 103.06092,6.1368455 Z"
     id="path87"
     style="fill:#2c4f8c;fill-opacity:1;stroke-width:1" />
  <path
     class="cls-1"
     d="m 116.12724,4.0784068 a 4.8886207,4.8862937 0 0 1 0.50985,0 4.2388041,4.2367864 0 0 1 0.46987,0 l -0.21994,2.7379233 a 2.6292582,2.6280066 0 0 0 -0.40988,-0.069947 h -0.44988 a 3.8389169,3.8370895 0 0 0 -1.4196,0.259803 2.3793287,2.3781961 0 0 0 -1.09969,0.8493557 2.6892413,2.6879612 0 0 0 -0.41988,1.5987873 V 14.870221 H 110.2289 V 4.2682628 h 2.20938 l 0.42988,1.7986357 h 0.12996 a 4.4387477,4.4366348 0 0 1 1.22965,-1.4089313 3.179103,3.1775898 0 0 1 1.89947,-0.5795604 z"
     id="path89"
     style="fill:#2c4f8c;fill-opacity:1;stroke-width:1" />
  <path
     class="cls-1"
     d="m 124.92475,6.4566029 h -2.51929 v 8.4535881 h -2.89918 V 6.4566029 h -1.59955 V 5.0476716 l 1.59955,-0.7794088 V 3.5388161 a 3.9988718,3.9969683 0 0 1 0.45987,-2.1183932 2.4793005,2.4781203 0 0 1 1.25965,-1.10915871 5.7583753,5.7556343 0 0 1 1.99943,-0.30976504 7.4079099,7.4043837 0 0 1 1.53957,0.13989389 5.7183866,5.7156646 0 0 1 1.12968,0.30976504 L 125.22467,2.539574 C 125.00473,2.469627 124.7648,2.4096726 124.49488,2.349718 a 3.9988718,3.9969683 0 0 0 -0.88975,-0.089932 1.0497038,1.0492042 0 0 0 -0.87976,0.3697196 1.4995769,1.4988631 0 0 0 -0.28991,0.9392876 v 0.6594997 h 2.51929 v 2.1883402 z"
     id="path91"
     style="fill:#2c4f8c;fill-opacity:1;stroke-width:1" />
  <path
     class="cls-1"
     d="m 136.22157,9.5342685 a 5.628412,5.6257329 0 0 1 -1.38961,4.0868995 4.9985897,4.9962103 0 0 1 -3.79893,1.448901 5.3784825,5.3759223 0 0 1 -2.63925,-0.649507 4.5187251,4.5165742 0 0 1 -1.81949,-1.878575 6.1982512,6.1953008 0 0 1 -0.66981,-2.9977261 5.5884233,5.5857632 0 0 1 1.4196,-4.0069607 4.9985897,4.9962103 0 0 1 3.79893,-1.4189237 5.3684853,5.3659299 0 0 1 2.65924,0.6395149 4.5987025,4.5965135 0 0 1 1.80949,1.8685827 6.2582343,6.2552554 0 0 1 0.62983,2.9077944 z m -7.34793,0 a 4.4387477,4.4366348 0 0 0 0.51985,2.3881885 2.1393964,2.138378 0 0 0 3.34906,0 4.4387477,4.4366348 0 0 0 0.51985,-2.3881885 4.28879,4.2867485 0 0 0 -0.51985,-2.3682037 1.8494782,1.8485978 0 0 0 -1.68953,-0.7894012 1.8294838,1.828613 0 0 0 -1.65953,0.7894012 4.28879,4.2867485 0 0 0 -0.48986,2.3682037 z"
     id="path93"
     style="fill:#2c4f8c;fill-opacity:1;stroke-width:1" />
  <path
     class="cls-1"
     d="m 144.5992,4.0784068 a 4.6986743,4.6964377 0 0 1 0.50986,0 3.9988718,3.9969683 0 0 1 0.46987,0 l -0.20994,2.7379233 a 3.1391143,3.1376201 0 0 0 -0.40989,-0.069947 h -0.44987 a 3.8589112,3.8570744 0 0 0 -1.4296,0.259803 2.4393118,2.4381507 0 0 0 -1.09969,0.8493557 2.6892413,2.6879612 0 0 0 -0.41988,1.5987873 v 5.4158919 h -2.90918 V 4.2682628 h 2.20938 l 0.42988,1.7986357 h 0.12996 a 4.5487166,4.5465514 0 0 1 1.28964,-1.4089313 3.179103,3.1775898 0 0 1 1.88946,-0.5795604 z"
     id="path95"
     style="fill:#2c4f8c;fill-opacity:1;stroke-width:1" />
  <path
     class="cls-1"
     d="m 160.01485,4.0784068 a 3.7089536,3.7071881 0 0 1 2.73923,0.9193027 4.1188379,4.1168773 0 0 1 0.91974,2.9977262 v 6.9347393 h -2.89918 V 8.6949052 c 0,-1.5288404 -0.53985,-2.2982568 -1.59955,-2.2982568 a 1.7395092,1.7386812 0 0 0 -1.63954,0.8193785 4.5887053,4.5865211 0 0 0 -0.48986,2.3582113 v 5.3359528 h -2.90918 V 8.6949052 c 0,-1.5288404 -0.52985,-2.2982568 -1.59955,-2.2982568 a 1.6895233,1.6887191 0 0 0 -1.65953,0.8993179 5.8983358,5.8955282 0 0 0 -0.45987,2.6080218 v 4.9962099 h -2.90918 V 4.2682628 h 2.22937 l 0.3799,1.3689616 h 0.15995 a 2.8092074,2.8078702 0 0 1 1.33962,-1.189098 4.2787928,4.2767561 0 0 1 1.75951,-0.3697196 4.5387194,4.536559 0 0 1 1.99943,0.379712 2.7092356,2.707946 0 0 1 1.25965,1.1791056 h 0.25992 a 2.7392272,2.7379233 0 0 1 1.31963,-1.189098 4.4487448,4.4466272 0 0 1 1.79949,-0.3697196 z"
     id="path97"
     style="fill:#2c4f8c;fill-opacity:1;stroke-width:1" />
  <path
     class="cls-1"
     d="m 171.03175,4.058422 a 5.1585446,5.1560891 0 0 1 3.28907,0.9193027 3.4490269,3.4473851 0 0 1 1.13968,2.8378475 v 7.0946188 h -1.99944 l -0.56984,-1.438909 h -0.07 a 4.5987025,4.5965135 0 0 1 -1.44959,1.249053 4.6286941,4.6264908 0 0 1 -2.08941,0.389704 3.4890156,3.4873548 0 0 1 -2.35934,-0.819379 3.2490833,3.2475367 0 0 1 -0.92973,-2.558059 2.8192046,2.8178626 0 0 1 1.18966,-2.4981051 6.9980256,6.9946945 0 0 1 3.56899,-0.8893255 l 1.84948,-0.059954 V 7.8155722 A 1.5795543,1.5788025 0 0 0 172.16141,6.5865044 1.7695008,1.7686585 0 0 0 170.94175,6.1968 5.1785389,5.1760739 0 0 0 169.42218,6.4266257 12.666426,12.660397 0 0 0 167.9426,6.9762088 l -0.99972,-1.9984841 a 8.9274812,8.9232317 0 0 1 1.88947,-0.6894771 8.8075151,8.8033226 0 0 1 2.19938,-0.2298256 z m 1.53956,5.9255054 h -1.12968 a 3.1591087,3.1576049 0 0 0 -1.94945,0.4996206 1.5495628,1.5488252 0 0 0 -0.54985,1.229068 1.0996897,1.0991663 0 0 0 0.38989,0.999242 1.6895233,1.6887191 0 0 0 0.99972,0.279788 2.2993513,2.2982568 0 0 0 1.57956,-0.559576 1.9994359,1.9984841 0 0 0 0.63982,-1.56881 V 9.9939196 Z"
     id="path99"
     style="fill:#2c4f8c;fill-opacity:1;stroke-width:1" />
  <path
     class="cls-1"
     d="m 184.48795,4.0784068 a 3.9988718,3.9969683 0 0 1 2.74922,0.9193027 3.8189225,3.8171047 0 0 1 0.99972,2.9977262 v 6.9347393 h -2.90918 V 8.6949052 a 2.9991538,2.9977262 0 0 0 -0.40988,-1.7286888 1.5095741,1.5088555 0 0 0 -1.30963,-0.569568 1.8694725,1.8685827 0 0 0 -1.80949,0.8993179 5.5784261,5.5757708 0 0 0 -0.48986,2.6080218 v 4.9962099 h -2.90918 V 4.2682628 h 2.22937 l 0.38989,1.3689616 h 0.18994 a 2.8591933,2.8578323 0 0 1 1.39961,-1.189098 4.7786518,4.7763771 0 0 1 1.87947,-0.3697196 z"
     id="path101"
     style="fill:#2c4f8c;fill-opacity:1;stroke-width:1" />
  <path
     class="cls-1"
     d="m 195.58482,15.110039 a 4.9985897,4.9962103 0 0 1 -3.67896,-1.309007 5.7283838,5.7256571 0 0 1 -1.28964,-4.1468544 6.6481243,6.6449598 0 0 1 0.65981,-3.1775898 4.1988153,4.1968167 0 0 1 1.83948,-1.8186206 6.0882823,6.0853842 0 0 1 2.72923,-0.5795604 7.6578394,7.6541943 0 0 1 1.89947,0.2098408 7.1979692,7.1945429 0 0 1 1.4096,0.5096135 l -0.85976,2.2383022 C 197.84418,6.8562998 197.4143,6.7064135 197.02441,6.5865044 a 4.0788492,4.0769076 0 0 0 -1.17967,-0.1798636 c -1.50957,0 -2.26936,1.0791815 -2.26936,3.2175595 a 3.7689366,3.7671426 0 0 0 0.59984,2.3582107 1.9994359,1.9984841 0 0 0 1.65953,0.759424 4.9386066,4.9362558 0 0 0 1.61954,-0.239818 6.4281864,6.4251265 0 0 0 1.36961,-0.669492 v 2.468128 a 4.7186687,4.7164226 0 0 1 -1.3996,0.61953 7.2679494,7.2644898 0 0 1 -1.83948,0.189856 z"
     id="path103"
     style="fill:#2c4f8c;fill-opacity:1;stroke-width:1" />
  <path
     class="cls-1"
     d="m 205.67197,4.0784068 a 4.8086433,4.8063544 0 0 1 3.52901,1.2490526 4.7886489,4.7863695 0 0 1 1.28963,3.5772866 v 1.408931 h -6.86806 a 2.7892131,2.7878854 0 0 0 0.72979,1.928537 2.5592779,2.5580597 0 0 0 1.91946,0.69947 8.3776363,8.3736485 0 0 0 1.86948,-0.199849 8.9974615,8.9931786 0 0 0 1.7395,-0.639515 v 2.248295 a 6.9380425,6.93474 0 0 1 -1.65953,0.569568 9.5073176,9.5027921 0 0 1 -2.07941,0.189856 6.3682033,6.365172 0 0 1 -2.8292,-0.599545 4.3387759,4.3367106 0 0 1 -1.92946,-1.788644 5.9983076,5.9954524 0 0 1 -0.7098,-3.05768 6.7380989,6.7348916 0 0 1 0.63982,-3.0976504 4.3087843,4.3067333 0 0 1 1.75951,-1.8685827 5.3684853,5.3659299 0 0 1 2.59926,-0.6195301 z m 0,2.0584387 a 1.9294556,1.9285372 0 0 0 -1.4096,0.5495831 2.6292582,2.6280066 0 0 0 -0.63982,1.6987115 h 4.07885 a 2.6792441,2.6779687 0 0 0 -0.51985,-1.5987873 1.7894951,1.7886433 0 0 0 -1.48958,-0.6495073 z"
     id="path105"
     style="fill:#2c4f8c;fill-opacity:1;stroke-width:1" />
  <polygon
     class="cls-1"
     points="7.74,21.86 22.85,19.67 29.61,5.97 36.37,19.67 51.49,21.86 40.55,32.52 43.13,47.58 29.61,40.47 16.09,47.58 18.68,32.52 "
     id="polygon107"
     style="fill:#2c4f8c;fill-opacity:1;stroke-width:1.00052"
     transform="matrix(0.99971794,0,0,0.99924207,-7.7378168,-4.4551205)" />
  <path
     class="cls-2"
     d="m 10.387069,59.676235 1.999436,-19.535182 9.527312,-4.806355 8.997462,4.506582 3.409038,19.834955 -12.396503,-7.104611 z"
     id="path109"
     style="fill:#2c4f8c;fill-opacity:1" />
</svg>
