<?xml version="1.0" encoding="UTF-8" standalone="no"?>
<svg
   xmlns:dc="http://purl.org/dc/elements/1.1/"
   xmlns:cc="http://creativecommons.org/ns#"
   xmlns:rdf="http://www.w3.org/1999/02/22-rdf-syntax-ns#"
   xmlns:svg="http://www.w3.org/2000/svg"
   xmlns="http://www.w3.org/2000/svg"
   xmlns:xlink="http://www.w3.org/1999/xlink"
   xmlns:sodipodi="http://sodipodi.sourceforge.net/DTD/sodipodi-0.dtd"
   xmlns:inkscape="http://www.inkscape.org/namespaces/inkscape"
   width="90mm"
   height="16mm"
   viewBox="0 0 90 16"
   version="1.1"
   id="svg66"
   inkscape:version="1.0.1 (3bc2e813f5, 2020-09-07)"
   sodipodi:docname="Mod_Globales.svg">
  <defs
     id="defs60">
    <linearGradient
       inkscape:collect="always"
       xlink:href="#linearGradient1079"
       id="linearGradient1081-5-4-96"
       x1="46.772171"
       y1="8.2185383"
       x2="46.638531"
       y2="18.241146"
       gradientUnits="userSpaceOnUse"
       gradientTransform="matrix(1.3289267,0,0,1.0103741,-13.680974,-5.8059121)" />
    <linearGradient
       inkscape:collect="always"
       id="linearGradient1079">
      <stop
         style="stop-color:#dc0882;stop-opacity:1"
         offset="0"
         id="stop1075" />
      <stop
         style="stop-color:#780096;stop-opacity:1"
         offset="1"
         id="stop1077" />
    </linearGradient>
    <linearGradient
       inkscape:collect="always"
       xlink:href="#linearGradient1079"
       id="linearGradient1091-8-3-06"
       x1="22.802332"
       y1="27.227945"
       x2="22.98518"
       y2="42.028137"
       gradientUnits="userSpaceOnUse"
       gradientTransform="matrix(1.0103741,0,0,1.0411245,-14.85232,-27.826092)" />
  </defs>
  <sodipodi:namedview
     id="base"
     pagecolor="#ffffff"
     bordercolor="#666666"
     borderopacity="1.0"
     inkscape:pageopacity="0.0"
     inkscape:pageshadow="2"
     inkscape:zoom="2.8"
     inkscape:cx="157.41572"
     inkscape:cy="99.630227"
     inkscape:document-units="mm"
     inkscape:current-layer="layer1"
     inkscape:document-rotation="0"
     showgrid="false"
     inkscape:window-width="1920"
     inkscape:window-height="1017"
     inkscape:window-x="-8"
     inkscape:window-y="-8"
     inkscape:window-maximized="1" />
  <metadata
     id="metadata63">
    <rdf:RDF>
      <cc:Work
         rdf:about="">
        <dc:format>image/svg+xml</dc:format>
        <dc:type
           rdf:resource="http://purl.org/dc/dcmitype/StillImage" />
        <dc:title></dc:title>
      </cc:Work>
    </rdf:RDF>
  </metadata>
  <g
     inkscape:label="Capa 1"
     inkscape:groupmode="layer"
     id="layer1">
    <rect
       style="fill:url(#linearGradient1081-5-4-96);fill-opacity:1;fill-rule:evenodd;stroke-width:0.29104"
       id="rect248-3-3-9"
       width="81.869362"
       height="11.206751"
       x="8.1627054"
       y="2.0253136"
       ry="2.34323"
       inkscape:export-xdpi="96.029831"
       inkscape:export-ydpi="96.029831" />
    <ellipse
       style="opacity:1;fill:url(#linearGradient1091-8-3-06);fill-opacity:1;stroke-width:0.271365"
       id="path1083-5-9-6"
       cx="8.0337572"
       cy="8"
       rx="8.0337572"
       ry="8"
       inkscape:export-xdpi="96.029831"
       inkscape:export-ydpi="96.029831" />
    <text
       xml:space="preserve"
       style="font-style:normal;font-weight:normal;font-size:4.99014px;line-height:1.25;font-family:sans-serif;fill:#000000;fill-opacity:1;stroke:none;stroke-width:0.267328"
       x="21.543362"
       y="9.0964174"
       id="text1154-8-1-5"
       inkscape:export-xdpi="96.029831"
       inkscape:export-ydpi="96.029831"><tspan
         sodipodi:role="line"
         id="tspan1152-1-5-4"
         x="21.543362"
         y="9.0964174"
         style="font-style:normal;font-variant:normal;font-weight:normal;font-stretch:normal;font-size:5.703px;font-family:'Segoe UI';-inkscape-font-specification:'Segoe UI';fill:#ffffff;fill-opacity:1;stroke-width:0.267328">Modificadores Globales</tspan></text>
    <path
       id="path126-2"
       style="fill:#ffffff;fill-opacity:1;fill-rule:evenodd;stroke:none;stroke-width:0.0306374"
       d="m 9.6106801,10.992599 v 0 H 4.3371842 V 4.1810831 h 1.4501495 v 0.058016 c 0,0.1028035 0.093662,0.1884752 0.2085816,0.1884752 H 7.952242 c 0.1152332,0 0.2089049,-0.08567 0.2089049,-0.1884752 V 4.1810831 H 9.6106801 Z M 6.4855527,6.4097046 H 6.8649481 V 7.4067832 H 6.4855527 Z M 7.24497,6.7259325 H 7.6200007 V 7.4067832 H 7.24497 Z M 7.952242,6.4097046 H 8.3278991 V 7.4067832 H 7.952242 Z M 6.7203737,6.0234386 7.4835396,6.4956763 8.5364908,5.7607171 8.4256427,5.6134248 7.4747998,6.2780438 6.7294267,5.8151257 5.4073118,6.4716284 5.4925873,6.630343 Z M 5.6849121,6.7259325 H 6.0639943 V 7.4067832 H 5.6849121 Z M 5.5518862,9.079903 h 3.1082542 c 0.04678,0 0.084972,0.037273 0.084972,0.083568 v 0.299093 c 0,0.04479 -0.038091,0.082063 -0.084972,0.082063 H 5.5518862 c -0.047185,0 -0.084265,-0.037273 -0.084265,-0.082063 V 9.163471 c 0,-0.046295 0.037182,-0.083568 0.084265,-0.083568 z m 0,-1.0133112 h 3.1082542 c 0.04678,0 0.084972,0.037576 0.084972,0.082972 V 8.44956 c 0,0.045386 -0.038091,0.081759 -0.084972,0.081759 H 5.5518862 c -0.047185,0 -0.084265,-0.036373 -0.084265,-0.081759 V 8.1495597 c 0,-0.045386 0.037182,-0.082972 0.084265,-0.082972 z M 10.838487,3.9968171 v 0 l 1.014537,-0.00394 c 0.213279,0 0.383154,0.1629238 0.383154,0.3679297 l 0.0051,0.6411723 -1.782391,0.00455 -0.004,-0.6375653 c 0,-0.097097 0.03839,-0.1911779 0.110848,-0.2651262 0.07214,-0.066129 0.170804,-0.1070117 0.272912,-0.1070117 z m 1.402692,1.1822458 v 0 l -1.786453,0.00242 0.004,0.4683286 1.782391,-0.00242 z m 0.01243,4.714555 v 0 h -1.782401 l -0.01253,-4.0595547 h 1.7824 z m -0.716335,1.6580911 c -0.03001,0.06463 -0.09841,0.10581 -0.170491,0.10581 -0.07214,0 -0.140523,-0.04118 -0.174249,-0.102504 l -0.725075,-1.427531 1.78615,-0.0099 z M 9.6577637,3.7139558 H 8.1610863 v -0.089873 c 0,-0.099199 -0.093662,-0.1896765 -0.2089049,-0.1896765 H 5.9958547 c -0.1149099,0 -0.2085817,0.090479 -0.2085817,0.1896765 v 0.089873 H 4.2859077 c -0.2601107,0 -0.4683993,0.1887753 -0.4683993,0.4178291 V 11.03859 c 0,0.232962 0.2082886,0.417228 0.4683993,0.417228 h 5.371856 c 0.2594944,0 0.4687123,-0.184266 0.4687123,-0.417228 V 4.1317849 c 0,-0.2290538 -0.2092179,-0.4178291 -0.4687123,-0.4178291 v 0"
       inkscape:export-xdpi="96.029831"
       inkscape:export-ydpi="96.029831" />
  </g>
</svg>
