<?xml version="1.0" encoding="UTF-8" standalone="no"?>
<svg
   xmlns:dc="http://purl.org/dc/elements/1.1/"
   xmlns:cc="http://creativecommons.org/ns#"
   xmlns:rdf="http://www.w3.org/1999/02/22-rdf-syntax-ns#"
   xmlns:svg="http://www.w3.org/2000/svg"
   xmlns="http://www.w3.org/2000/svg"
   xmlns:xlink="http://www.w3.org/1999/xlink"
   xmlns:sodipodi="http://sodipodi.sourceforge.net/DTD/sodipodi-0.dtd"
   xmlns:inkscape="http://www.inkscape.org/namespaces/inkscape"
   width="90mm"
   height="16mm"
   viewBox="0 0 90 16"
   version="1.1"
   id="svg66"
   inkscape:version="1.0.1 (3bc2e813f5, 2020-09-07)"
   sodipodi:docname="Mod.svg">
  <defs
     id="defs60">
    <linearGradient
       inkscape:collect="always"
       id="linearGradient1079">
      <stop
         style="stop-color:#dc0882;stop-opacity:1"
         offset="0"
         id="stop1075" />
      <stop
         style="stop-color:#780096;stop-opacity:1"
         offset="1"
         id="stop1077" />
    </linearGradient>
    <linearGradient
       inkscape:collect="always"
       xlink:href="#linearGradient1079"
       id="linearGradient1081-5-4"
       x1="46.772171"
       y1="8.2185383"
       x2="46.638531"
       y2="18.241146"
       gradientUnits="userSpaceOnUse"
       gradientTransform="matrix(1.3289267,0,0,1.0103741,-13.680974,-5.805913)" />
    <linearGradient
       inkscape:collect="always"
       xlink:href="#linearGradient1079"
       id="linearGradient1091-8-3"
       x1="22.802332"
       y1="27.227945"
       x2="22.98518"
       y2="42.028137"
       gradientUnits="userSpaceOnUse"
       gradientTransform="matrix(1.0103741,0,0,1.0411245,-14.852321,-27.826093)" />
  </defs>
  <sodipodi:namedview
     id="base"
     pagecolor="#ffffff"
     bordercolor="#666666"
     borderopacity="1.0"
     inkscape:pageopacity="0.0"
     inkscape:pageshadow="2"
     inkscape:zoom="2.8"
     inkscape:cx="157.41572"
     inkscape:cy="99.630227"
     inkscape:document-units="mm"
     inkscape:current-layer="layer1"
     inkscape:document-rotation="0"
     showgrid="false"
     inkscape:window-width="1920"
     inkscape:window-height="1017"
     inkscape:window-x="-8"
     inkscape:window-y="-8"
     inkscape:window-maximized="1" />
  <metadata
     id="metadata63">
    <rdf:RDF>
      <cc:Work
         rdf:about="">
        <dc:format>image/svg+xml</dc:format>
        <dc:type
           rdf:resource="http://purl.org/dc/dcmitype/StillImage" />
        <dc:title></dc:title>
      </cc:Work>
    </rdf:RDF>
  </metadata>
  <g
     inkscape:label="Capa 1"
     inkscape:groupmode="layer"
     id="layer1">
    <rect
       style="fill:url(#linearGradient1081-5-4);fill-opacity:1;fill-rule:evenodd;stroke-width:0.29104"
       id="rect248-3-3"
       width="81.869362"
       height="11.206751"
       x="8.1626921"
       y="2.0253124"
       ry="2.34323"
       inkscape:export-xdpi="96.029831"
       inkscape:export-ydpi="96.029831" />
    <ellipse
       style="opacity:1;fill:url(#linearGradient1091-8-3);fill-opacity:1;stroke-width:0.271365"
       id="path1083-5-9"
       cx="8.0337563"
       cy="8"
       rx="8.0337563"
       ry="8"
       inkscape:export-xdpi="96.029831"
       inkscape:export-ydpi="96.029831" />
    <text
       xml:space="preserve"
       style="font-style:normal;font-weight:normal;font-size:4.99014px;line-height:1.25;font-family:sans-serif;fill:#000000;fill-opacity:1;stroke:none;stroke-width:0.267328"
       x="31.443274"
       y="9.0964088"
       id="text1154-8-1"
       inkscape:export-xdpi="96.029831"
       inkscape:export-ydpi="96.029831"><tspan
         sodipodi:role="line"
         id="tspan1152-1-5"
         x="31.443274"
         y="9.0964088"
         style="font-style:normal;font-variant:normal;font-weight:normal;font-stretch:normal;font-size:5.703px;font-family:'Segoe UI';-inkscape-font-specification:'Segoe UI';fill:#ffffff;fill-opacity:1;stroke-width:0.267328">Modificadores</tspan></text>
    <path
       id="path126"
       style="fill:#ffffff;fill-opacity:1;fill-rule:evenodd;stroke:none;stroke-width:0.0306374"
       d="m 9.6106736,10.992597 v 0 H 4.3371824 V 4.1810812 h 1.4501484 v 0.058016 c 0,0.1028035 0.093672,0.1884751 0.2085857,0.1884751 h 1.956324 c 0.1152291,0 0.2089048,-0.08567 0.2089048,-0.1884751 V 4.1810812 H 9.6106736 Z M 6.4855491,6.4097027 H 6.8649437 V 7.4067812 H 6.4855491 Z M 7.2449666,6.7259306 H 7.6199981 V 7.4067812 H 7.2449666 Z M 7.9522405,6.4097027 H 8.3278996 V 7.4067812 H 7.9522405 Z M 6.7203713,6.0234367 7.4835421,6.4956744 8.5364864,5.7607152 8.4256382,5.6134228 7.4747975,6.2780418 6.7294262,5.8151238 5.4073069,6.4716265 5.4925522,6.6303411 Z M 5.6849092,6.7259306 H 6.0639945 V 7.4067812 H 5.6849092 Z M 5.5518793,9.0799011 h 3.1082626 c 0.046821,0 0.084973,0.037273 0.084973,0.083568 v 0.299093 c 0,0.04479 -0.038061,0.082063 -0.084973,0.082063 H 5.5518793 c -0.047174,0 -0.084265,-0.037273 -0.084265,-0.082063 v -0.299093 c 0,-0.046295 0.037172,-0.083568 0.084265,-0.083568 z m 0,-1.0133112 h 3.1082626 c 0.046821,0 0.084973,0.037576 0.084973,0.082972 V 8.449558 c 0,0.045386 -0.038061,0.08176 -0.084973,0.08176 H 5.5518793 c -0.047174,0 -0.084265,-0.036374 -0.084265,-0.08176 V 8.1495577 c 0,-0.045386 0.037172,-0.082972 0.084265,-0.082972 z M 10.838488,3.9968152 v 0 l 1.014537,-0.00394 c 0.213277,0 0.383148,0.1629238 0.383148,0.3679297 l 0.0054,0.6411723 -1.78239,0.00455 -0.0044,-0.6375653 c 0,-0.097097 0.03842,-0.1911779 0.110847,-0.2651262 0.07214,-0.066129 0.170809,-0.1070117 0.27292,-0.1070117 z m 1.402687,1.1822458 v 0 l -1.786455,0.00242 0.0044,0.4683286 1.782391,-0.00242 z m 0.01248,4.714555 v 0 h -1.782399 l -0.01248,-4.0595547 h 1.782399 z m -0.716329,1.658091 c -0.03001,0.06463 -0.09837,0.10581 -0.170497,0.10581 -0.07214,0 -0.140519,-0.04118 -0.174244,-0.102504 l -0.725073,-1.427532 1.786143,-0.0099 z M 9.6578146,3.7139539 H 8.1611344 v -0.089873 c 0,-0.099199 -0.093672,-0.1896766 -0.2089049,-0.1896766 H 5.9959064 c -0.1149108,0 -0.2085867,0.090479 -0.2085867,0.1896766 v 0.089873 H 4.2859564 c -0.2601107,0 -0.4683963,0.1887753 -0.4683963,0.4178291 v 6.906805 c 0,0.232962 0.2082856,0.417228 0.4683963,0.417228 h 5.3718582 c 0.2594923,0 0.4687064,-0.184266 0.4687064,-0.417228 V 4.131783 c 0,-0.2290538 -0.2092141,-0.4178291 -0.4687064,-0.4178291 v 0"
       inkscape:export-xdpi="96.029831"
       inkscape:export-ydpi="96.029831" />
  </g>
</svg>
