<?xml version="1.0" encoding="UTF-8" standalone="no"?>
<svg
   xmlns:dc="http://purl.org/dc/elements/1.1/"
   xmlns:cc="http://creativecommons.org/ns#"
   xmlns:rdf="http://www.w3.org/1999/02/22-rdf-syntax-ns#"
   xmlns:svg="http://www.w3.org/2000/svg"
   xmlns="http://www.w3.org/2000/svg"
   xmlns:xlink="http://www.w3.org/1999/xlink"
   xmlns:sodipodi="http://sodipodi.sourceforge.net/DTD/sodipodi-0.dtd"
   xmlns:inkscape="http://www.inkscape.org/namespaces/inkscape"
   width="90mm"
   height="16mm"
   viewBox="0 0 90 16"
   version="1.1"
   id="svg66"
   inkscape:version="1.0.1 (3bc2e813f5, 2020-09-07)"
   sodipodi:docname="Umbrales.svg">
  <defs
     id="defs60">
    <linearGradient
       inkscape:collect="always"
       xlink:href="#linearGradient1079"
       id="linearGradient1081-5-4-9"
       x1="46.772171"
       y1="8.2185383"
       x2="46.638531"
       y2="18.241146"
       gradientUnits="userSpaceOnUse"
       gradientTransform="matrix(1.3292598,0,0,1,-13.680984,-5.6321701)" />
    <linearGradient
       inkscape:collect="always"
       id="linearGradient1079">
      <stop
         style="stop-color:#dc0882;stop-opacity:1"
         offset="0"
         id="stop1075" />
      <stop
         style="stop-color:#780096;stop-opacity:1"
         offset="1"
         id="stop1077" />
    </linearGradient>
    <linearGradient
       inkscape:collect="always"
       xlink:href="#linearGradient1079"
       id="linearGradient1091-8-3-0"
       x1="22.802332"
       y1="27.227945"
       x2="22.98518"
       y2="42.028137"
       gradientUnits="userSpaceOnUse"
       gradientTransform="matrix(1.0061286,0,0,1.0367498,-14.700637,-27.595038)" />
  </defs>
  <sodipodi:namedview
     id="base"
     pagecolor="#ffffff"
     bordercolor="#666666"
     borderopacity="1.0"
     inkscape:pageopacity="0.0"
     inkscape:pageshadow="2"
     inkscape:zoom="2.8"
     inkscape:cx="162.47355"
     inkscape:cy="99.630227"
     inkscape:document-units="mm"
     inkscape:current-layer="layer1"
     inkscape:document-rotation="0"
     showgrid="false"
     inkscape:window-width="1920"
     inkscape:window-height="1017"
     inkscape:window-x="-8"
     inkscape:window-y="-8"
     inkscape:window-maximized="1" />
  <metadata
     id="metadata63">
    <rdf:RDF>
      <cc:Work
         rdf:about="">
        <dc:format>image/svg+xml</dc:format>
        <dc:type
           rdf:resource="http://purl.org/dc/dcmitype/StillImage" />
        <dc:title></dc:title>
      </cc:Work>
    </rdf:RDF>
  </metadata>
  <g
     inkscape:label="Capa 1"
     inkscape:groupmode="layer"
     id="layer1">
    <rect
       style="fill:url(#linearGradient1081-5-4-9);fill-opacity:1;fill-rule:evenodd;stroke-width:0.289579"
       id="rect248-3-3-4"
       width="81.889877"
       height="11.091685"
       x="8.1681604"
       y="2.1186481"
       ry="2.3191707"
       inkscape:export-xdpi="96.029831"
       inkscape:export-ydpi="96.029831" />
    <ellipse
       style="opacity:1;fill:url(#linearGradient1091-8-3-0);fill-opacity:1;stroke-width:0.270225"
       id="path1083-5-9-7"
       cx="8.0892811"
       cy="8.0805187"
       rx="8"
       ry="7.9663849"
       inkscape:export-xdpi="96.029831"
       inkscape:export-ydpi="96.029831" />
    <text
       xml:space="preserve"
       style="font-style:normal;font-weight:normal;font-size:4.9389px;line-height:1.25;font-family:sans-serif;fill:#000000;fill-opacity:1;stroke:none;stroke-width:0.264583"
       x="36.310837"
       y="9.3844185"
       id="text1154-8-1-3"
       inkscape:export-xdpi="96.029831"
       inkscape:export-ydpi="96.029831"><tspan
         sodipodi:role="line"
         id="tspan1152-1-5-9"
         x="36.310837"
         y="9.3844185"
         style="font-style:normal;font-variant:normal;font-weight:normal;font-stretch:normal;font-size:5.64444px;font-family:'Segoe UI';-inkscape-font-specification:'Segoe UI';fill:#ffffff;fill-opacity:1;stroke-width:0.264583">Umbrales</tspan></text>
    <path
       id="path78"
       style="fill:#ffffff;fill-opacity:1;fill-rule:evenodd;stroke:none;stroke-width:0.0393917"
       d="M 9.5754403,5.1600799 H 6.8356902 c -0.0426,0 -0.0798,0.0045 -0.1168699,0.01805 0.1068398,0.131925 0.1768499,0.299138 0.1768499,0.4864 v 0.255429 h 2.6797701 c 0.20316,0 0.3684,-0.172826 0.3684,-0.382944 0,-0.204504 -0.16524,-0.376929 -0.3684,-0.376929 z m 3.7319507,0.07298 v 0 l -0.6474,-0.571409 c -0.13119,-0.122702 -0.33551,-0.106266 -0.45314,0.03289 l -0.36376,0.438282 1.13421,1.014099 0.36453,-0.437879 c 0.0581,-0.06816 0.0846,-0.155584 0.0793,-0.249816 -0.011,-0.08301 -0.048,-0.165208 -0.11377,-0.226158 z m -1.56684,0.02084 v 0 l 1.14001,1.008888 -0.267,0.322396 -1.14002,-1.010092 z m -2.6793909,3.231569 v 0 l 1.1334309,1.00969 2.31022,-2.783264 -1.13266,-1.008888 z M 8.5751203,10.032484 c -0.015902,0.06175 0.005,0.127514 0.0479,0.166009 0.0464,0.04531 0.1118402,0.05453 0.17066,0.02727 L 10.06604,9.6555569 8.9322103,8.6418569 Z m -1.6794501,0.299939 c 0.5998001,-0.8051861 1.0862201,-1.4656141 0,0 z m -1.7858701,0.918666 -0.0132,0.382945 c 0,0.211322 0.16291,0.37693 0.3649202,0.37693 h 5.4887907 c 0.19658,0 0.36336,-0.165608 0.36336,-0.37693 V 9.5432779 l -0.7186,0.428256 -0.0151,1.2795551 c -1.8234106,0 -3.6468104,-0.0045 -5.4702206,0 z m 1.66745,-7.5762831 H 5.4615603 c -0.2020102,0 -0.36492,0.17042 -0.36492,0.382943 v 0.875359 h 0.7286599 v -0.498429 h 4.7547208 v 1.496491 l 0.73369,-1.313238 v -0.566598 c 0,-0.206108 -0.16678,-0.376528 -0.36336,-0.376528 h -0.1931 -1.1713507 z M 6.0424003,10.524898 c 0,0.04972 -0.0399,0.08903 -0.0894,0.08903 H 5.4135601 c -0.048,0 -0.0851,-0.03929 -0.0851,-0.08903 V 9.9667269 c 0,-0.05133 0.0372,-0.09503 0.0851,-0.09503 h 0.5394401 c 0.0495,0 0.0894,0.0437 0.0894,0.09503 z M 5.3284402,8.8575869 c 0,-0.04972 0.0372,-0.08861 0.0851,-0.08861 h 0.5394399 c 0.0495,0 0.0866,0.03889 0.0866,0.08861 v 0.559781 c 0,0.04853 -0.0372,0.08742 -0.0866,0.08742 H 5.4135402 c -0.048,0 -0.0851,-0.03889 -0.0851,-0.08742 z m -0.3595,-0.548953 c 0,0.05012 -0.0367,0.08821 -0.0848,0.08821 H 4.3431501 c -0.0479,0 -0.087,-0.03809 -0.087,-0.08821 v -0.560182 c 0,-0.04972 0.0391,-0.08821 0.087,-0.08821 h 0.5409901 c 0.0479,0 0.0848,0.0385 0.0848,0.08821 z m 0,1.108734 c 0,0.04853 -0.0367,0.08742 -0.0848,0.08742 H 4.3431501 c -0.0479,0 -0.087,-0.03889 -0.087,-0.08742 v -0.559781 c 0,-0.04972 0.0391,-0.09464 0.087,-0.09464 h 0.5409901 c 0.0479,0 0.0848,0.04491 0.0848,0.09464 z m 0,1.1075311 c 0,0.04972 -0.0367,0.08903 -0.0848,0.08903 H 4.3431501 c -0.0479,0 -0.087,-0.03929 -0.087,-0.08903 V 9.9667269 c 0,-0.05133 0.0391,-0.09503 0.087,-0.09503 h 0.5409901 c 0.0479,0 0.0848,0.0437 0.0848,0.09503 z m -1.06997,-2.2162651 c 0,0.05012 -0.0371,0.08821 -0.0831,0.08821 H 3.2733301 c -0.0479,0 -0.0851,-0.03809 -0.0851,-0.08821 v -0.560182 c 0,-0.04972 0.0371,-0.08821 0.0851,-0.08821 h 0.5425401 c 0.0461,0 0.0831,0.0385 0.0831,0.08821 z m 0,1.108734 c 0,0.04853 -0.0371,0.08742 -0.0831,0.08742 H 3.2733301 c -0.0479,0 -0.0851,-0.03889 -0.0851,-0.08742 v -0.559781 c 0,-0.04972 0.0371,-0.09464 0.0851,-0.09464 h 0.5425401 c 0.0461,0 0.0831,0.04491 0.0831,0.09464 z m 0,1.1075311 c 0,0.04972 -0.0371,0.08903 -0.0831,0.08903 H 3.2733301 c -0.0479,0 -0.0851,-0.03929 -0.0851,-0.08903 V 9.9667269 c 0,-0.05133 0.0371,-0.09503 0.0851,-0.09503 h 0.5425401 c 0.0461,0 0.0831,0.0437 0.0831,0.09503 z m 2.14072,-2.7764471 v 0.560182 c 0,0.05012 -0.0372,0.08821 -0.0867,0.08821 H 5.4135503 c -0.048,0 -0.0851,-0.03809 -0.0851,-0.08821 v -0.564993 c 0,-0.04491 0.0372,-0.08982 0.0851,-0.08982 h 0.5394399 c 0.0495,0.0064 0.0867,0.04491 0.0867,0.09463 z m -2.85159,-1.852568 c 0,-0.04853 0.0372,-0.08701 0.0851,-0.08701 h 2.6751201 c 0.0479,0 0.0866,0.0385 0.0866,0.08701 v 1.303614 c 0,0.05012 -0.0387,0.09062 -0.0866,0.09062 H 3.2732002 c -0.0479,0 -0.0851,-0.0405 -0.0851,-0.09062 z m 0.18343,0.257835 h 2.4913101 v 0.846488 H 3.3591501 v -0.0097 -0.82764 -0.0092 z M 6.1894401,5.4431679 H 3.0433802 c -0.1180401,0 -0.20819,0.09383 -0.20819,0.221345 v 5.1005781 c 0,0.121099 0.096,0.220545 0.20819,0.220545 h 3.14994 c 0.1180201,0 0.2163199,-0.09945 0.2163199,-0.220545 V 5.6645169 c 0,-0.122703 -0.0983,-0.221345 -0.2202,-0.221345 z m -1.4406898,1.341307 c 0.017399,-0.0068 0.0325,-0.01604 0.0449,-0.02727 0.010099,-0.01644 0.021701,-0.03368 0.021701,-0.04972 0,-0.01644 -0.005,-0.03409 -0.0167,-0.04531 -0.011001,-0.01079 -0.0279,-0.02045 -0.0499,-0.02766 z m -0.0514,-0.405801 c -0.017,0.0064 -0.0274,0.01604 -0.0317,0.02927 -0.011599,0.01125 -0.015899,0.02084 -0.015899,0.0369 0,0.01284 0.004,0.02927 0.010099,0.0405 0.010999,0.01046 0.020799,0.01564 0.0379,0.02848 z m 0,0.398985 v -0.159193 c -0.0476,-0.01244 -0.082,-0.03328 -0.10179,-0.06296 -0.0287,-0.03168 -0.0375,-0.06375 -0.0375,-0.103049 0,-0.04451 0.016999,-0.07859 0.0375,-0.105858 0.0274,-0.02727 0.0585,-0.04531 0.10179,-0.04972 v -0.03409 h 0.0514 v 0.03409 c 0.0391,0.0045 0.072,0.02246 0.0917,0.04291 0.0271,0.02325 0.0375,0.05012 0.0484,0.08903 l -0.0952,0.0108 c -0.005,-0.02687 -0.022799,-0.04972 -0.0449,-0.06095 v 0.151573 c 0.0608,0.01564 0.0983,0.03889 0.1188098,0.05934 0.021299,0.02887 0.0317,0.06175 0.0317,0.105857 0,0.04531 -0.010999,0.08221 -0.0372,0.111074 -0.0264,0.03289 -0.0635,0.04853 -0.1133801,0.06175 v 0.07218 h -0.0514 v -0.07218 c -0.0434,-0.0068 -0.0743,-0.02286 -0.1017998,-0.05173 -0.0286,-0.02607 -0.0438,-0.06576 -0.0499,-0.109074 l 0.0932,-0.01202 c 0.004,0.01644 0.010999,0.03247 0.0205,0.05012 0.011001,0.01604 0.025601,0.02286 0.0379,0.03207 z m 0.8981699,0.0068 c 0.015902,-0.0068 0.0317,-0.01604 0.0438,-0.02727 0.009,-0.01644 0.015499,-0.03368 0.015499,-0.04972 0,-0.01644 -0.007,-0.03409 -0.0112,-0.04531 -0.010999,-0.01079 -0.0259,-0.02045 -0.0479,-0.02766 z m -0.0545,-0.405805 c -0.015499,0.0064 -0.0259,0.01604 -0.0372,0.02927 -0.004,0.01125 -0.010999,0.02084 -0.010999,0.0369 0,0.01284 0.007,0.02927 0.010999,0.0405 0.0112,0.01046 0.021701,0.01564 0.0372,0.02848 z m 0,0.398985 v -0.159193 c -0.0476,-0.01244 -0.0851,-0.03328 -0.1056299,-0.06296 -0.021701,-0.03168 -0.0321,-0.06375 -0.0321,-0.103049 0,-0.04451 0.011001,-0.07859 0.0372,-0.105858 0.0264,-0.02727 0.0596,-0.04531 0.10064,-0.04972 v -0.03409 h 0.0545 v 0.03409 c 0.0372,0.0045 0.0684,0.02246 0.0902,0.04291 0.021701,0.02325 0.0391,0.05012 0.0438,0.08903 l -0.0902,0.0108 c -0.007,-0.02687 -0.021699,-0.04972 -0.0438,-0.06095 v 0.151574 c 0.0593,0.01564 0.0963,0.03889 0.1176499,0.05934 0.0205,0.02887 0.0329,0.06175 0.0329,0.105857 0,0.04531 -0.012401,0.08221 -0.0387,0.111074 -0.0283,0.03289 -0.0638,0.04853 -0.1118298,0.06175 v 0.07218 h -0.0545 v -0.07218 c -0.0411,-0.0068 -0.0743,-0.02286 -0.1006398,-0.05173 -0.0267,-0.02607 -0.0423,-0.06576 -0.0541,-0.109074 l 0.0975,-0.01202 c 0.004,0.01644 0.010099,0.03247 0.02,0.05012 0.0112,0.01604 0.021701,0.02286 0.0372,0.03207 z m -0.3672401,0.0068 c 0.0147,-0.0068 0.0306,-0.01604 0.0414,-0.02727 0.0127,-0.01644 0.015499,-0.03368 0.015499,-0.04972 0,-0.01644 -0.00201,-0.03409 -0.010999,-0.04531 -0.009,-0.01079 -0.0264,-0.02045 -0.0461,-0.02766 z m -0.0534,-0.405805 c -0.017,0.0064 -0.0279,0.01604 -0.0329,0.02927 -0.011001,0.01125 -0.017,0.02084 -0.017,0.0369 0,0.01284 0.007,0.02927 0.010999,0.0405 0.0117,0.01046 0.0225,0.01564 0.0394,0.02848 z m 0,0.398985 v -0.159193 c -0.0499,-0.01244 -0.0805,-0.03328 -0.1087001,-0.06296 -0.019701,-0.03168 -0.0314,-0.06375 -0.0314,-0.103049 0,-0.04451 0.015899,-0.07859 0.0367,-0.105858 0.0271,-0.02727 0.06,-0.04531 0.1033301,-0.04972 v -0.03409 h 0.0534 v 0.03409 c 0.0367,0.0045 0.0688,0.02246 0.0894,0.04291 0.022,0.02325 0.0388,0.05012 0.0433,0.08903 l -0.0914,0.0108 c -0.004,-0.02687 -0.021699,-0.04972 -0.0414,-0.06095 v 0.151574 c 0.057,0.01564 0.094,0.03889 0.1176399,0.05934 0.021701,0.02887 0.0309,0.06175 0.0309,0.105857 0,0.04531 -0.009,0.08221 -0.0372,0.111075 -0.025601,0.03289 -0.0654,0.04853 -0.1114399,0.06175 v 0.07218 h -0.0534 v -0.07218 c -0.0433,-0.0068 -0.0762,-0.02286 -0.1033201,-0.05173 -0.025199,-0.02607 -0.0426,-0.06577 -0.0519,-0.109074 l 0.0963,-0.01202 c 0.004,0.01644 0.009,0.03247 0.019301,0.05012 0.0117,0.01604 0.0225,0.02286 0.0395,0.03207 z M 9.94397,6.9612709 c 0,-0.210518 -0.1652399,-0.381341 -0.3684,-0.381341 H 6.8958001 v 0.758271 h 2.6797701 c 0.2031601,0 0.3684,-0.17042 0.3684,-0.37693 v 0"
       inkscape:export-xdpi="96.029831"
       inkscape:export-ydpi="96.029831" />
  </g>
</svg>
