<?xml version="1.0" encoding="UTF-8" standalone="no"?>
<svg
   xmlns:dc="http://purl.org/dc/elements/1.1/"
   xmlns:cc="http://creativecommons.org/ns#"
   xmlns:rdf="http://www.w3.org/1999/02/22-rdf-syntax-ns#"
   xmlns:svg="http://www.w3.org/2000/svg"
   xmlns="http://www.w3.org/2000/svg"
   xmlns:sodipodi="http://sodipodi.sourceforge.net/DTD/sodipodi-0.dtd"
   xmlns:inkscape="http://www.inkscape.org/namespaces/inkscape"
   viewBox="0 0 24 24"
   version="1.1"
   id="svg843"
   sodipodi:docname="arrow-circle-up-outline.svg"
   inkscape:version="0.92.4 (5da689c313, 2019-01-14)">
  <metadata
     id="metadata849">
    <rdf:RDF>
      <cc:Work
         rdf:about="">
        <dc:format>image/svg+xml</dc:format>
        <dc:type
           rdf:resource="http://purl.org/dc/dcmitype/StillImage" />
      </cc:Work>
    </rdf:RDF>
  </metadata>
  <defs
     id="defs847" />
  <sodipodi:namedview
     pagecolor="#ffffff"
     bordercolor="#666666"
     borderopacity="1"
     objecttolerance="10"
     gridtolerance="10"
     guidetolerance="10"
     inkscape:pageopacity="0"
     inkscape:pageshadow="2"
     inkscape:window-width="1366"
     inkscape:window-height="705"
     id="namedview845"
     showgrid="false"
     inkscape:zoom="22.333333"
     inkscape:cx="4.7686565"
     inkscape:cy="12"
     inkscape:window-x="-8"
     inkscape:window-y="-8"
     inkscape:window-maximized="1"
     inkscape:current-layer="svg843" />
  <g
     data-name="Layer 2"
     id="g841"
     style="fill-opacity:0.87843138;fill:#7c4b92">
    <g
       data-name="arrow-circle-up"
       id="g839"
       style="fill-opacity:0.87843138;fill:#7c4b92">
      <rect
         width="24"
         height="24"
         opacity="0"
         id="rect833"
         style="fill-opacity:0.87843138;fill:#7c4b92" />
      <path
         d="M12.71 7.29a1 1 0 0 0-.32-.21A1 1 0 0 0 12 7h-.1a.82.82 0 0 0-.27.06.72.72 0 0 0-.19.11 1 1 0 0 0-.13.09l-3 2.86a1 1 0 0 0 1.38 1.45L11 10.34V16a1 1 0 0 0 2 0v-5.59l1.29 1.3a1 1 0 0 0 1.42 0 1 1 0 0 0 0-1.42z"
         id="path835"
         style="fill-opacity:0.87843138;fill:#7c4b92" />
      <path
         d="M12 2a10 10 0 1 0 10 10A10 10 0 0 0 12 2zm0 18a8 8 0 1 1 8-8 8 8 0 0 1-8 8z"
         id="path837"
         style="fill-opacity:0.87843138;fill:#7c4b92" />
    </g>
  </g>
</svg>
