<?xml version="1.0" encoding="UTF-8" standalone="no"?>
<svg
   xmlns:dc="http://purl.org/dc/elements/1.1/"
   xmlns:cc="http://creativecommons.org/ns#"
   xmlns:rdf="http://www.w3.org/1999/02/22-rdf-syntax-ns#"
   xmlns:svg="http://www.w3.org/2000/svg"
   xmlns="http://www.w3.org/2000/svg"
   xmlns:sodipodi="http://sodipodi.sourceforge.net/DTD/sodipodi-0.dtd"
   xmlns:inkscape="http://www.inkscape.org/namespaces/inkscape"
   viewBox="0 0 24 24"
   version="1.1"
   id="svg843"
   sodipodi:docname="noFile.svg"
   inkscape:version="0.92.4 (5da689c313, 2019-01-14)"
   width="24"
   height="24">
  <metadata
     id="metadata849">
    <rdf:RDF>
      <cc:Work
         rdf:about="">
        <dc:format>image/svg+xml</dc:format>
        <dc:type
           rdf:resource="http://purl.org/dc/dcmitype/StillImage" />
        <dc:title></dc:title>
      </cc:Work>
    </rdf:RDF>
  </metadata>
  <defs
     id="defs847" />
  <sodipodi:namedview
     pagecolor="#ffffff"
     bordercolor="#666666"
     borderopacity="1"
     objecttolerance="10"
     gridtolerance="10"
     guidetolerance="10"
     inkscape:pageopacity="0"
     inkscape:pageshadow="2"
     inkscape:window-width="1366"
     inkscape:window-height="705"
     id="namedview845"
     showgrid="false"
     inkscape:zoom="11.313709"
     inkscape:cx="14.00711"
     inkscape:cy="9.5269232"
     inkscape:window-x="-8"
     inkscape:window-y="-8"
     inkscape:window-maximized="1"
     inkscape:current-layer="svg843" />
  <path
     style="fill:#7c4b92;stroke-width:0.12800045;fill-opacity:0.87843138"
     d="M 9.8967012,21.887886 C 6.1391505,21.077043 3.1224282,18.25343 2.1236563,14.612418 1.8078729,13.461232 1.7283731,11.112571 1.9674811,9.99854 2.4001149,7.9828505 3.2149118,6.5088987 4.7486631,4.9674356 6.026939,3.6827326 7.1360893,2.9914074 8.855615,2.4076028 c 1.15532,-0.3922484 1.316831,-0.4139176 3.080214,-0.4132586 1.773221,6.638e-4 1.920762,0.020897 3.129292,0.429157 3.273994,1.1060074 5.750698,3.7137243 6.653048,7.0049848 0.207241,0.755898 0.268902,1.364106 0.273644,2.699174 0.0057,1.61899 -0.01916,1.796881 -0.411167,2.93617 -0.583992,1.697247 -1.287052,2.811558 -2.577445,4.085106 -1.114769,1.100218 -2.147943,1.769603 -3.518717,2.279747 -1.705621,0.634761 -3.927913,0.817388 -5.5877828,0.459203 z m 7.0981488,-8.17814 c 0.302877,-0.115606 0.302877,-3.303886 0,-3.419492 -0.265085,-0.101182 -9.852957,-0.101182 -10.1180431,0 -0.1704988,0.06508 -0.2030101,0.339371 -0.2030101,1.712766 0,1.188775 0.043804,1.652859 0.1604278,1.699668 0.2313039,0.09284 9.9182654,0.09957 10.1606254,0.0071 z"
     id="path864"
     inkscape:connector-curvature="0" />
</svg>
